<svg width="20" height="20" viewBox="0 0 20 20" fill="none" xmlns="http://www.w3.org/2000/svg">
    <path
        d="M5.00001 8.3335C4.08334 8.3335 3.33334 9.0835 3.33334 10.0002C3.33334 10.9168 4.08334 11.6668 5.00001 11.6668C5.91668 11.6668 6.66668 10.9168 6.66668 10.0002C6.66668 9.0835 5.91668 8.3335 5.00001 8.3335ZM15 8.3335C14.0833 8.3335 13.3333 9.0835 13.3333 10.0002C13.3333 10.9168 14.0833 11.6668 15 11.6668C15.9167 11.6668 16.6667 10.9168 16.6667 10.0002C16.6667 9.0835 15.9167 8.3335 15 8.3335ZM10 8.3335C9.08334 8.3335 8.33334 9.0835 8.33334 10.0002C8.33334 10.9168 9.08334 11.6668 10 11.6668C10.9167 11.6668 11.6667 10.9168 11.6667 10.0002C11.6667 9.0835 10.9167 8.3335 10 8.3335Z"
        fill="#C2CFE0" />
</svg>