<svg width="20" height="20" viewBox="0 0 20 20" fill="none" xmlns="http://www.w3.org/2000/svg">
    <path
        d="M2.49996 3.2H16.6666C16.7384 3.2 16.8 3.2616 16.8 3.33333V8.33333C16.8 8.40507 16.7384 8.46667 16.6666 8.46667H2.49996C2.42823 8.46667 2.36663 8.40507 2.36663 8.33333V3.33333C2.36663 3.2616 2.42823 3.2 2.49996 3.2ZM2.49996 11.5333H16.6666C16.7384 11.5333 16.8 11.5949 16.8 11.6667V16.6667C16.8 16.7384 16.7384 16.8 16.6666 16.8H2.49996C2.42823 16.8 2.36663 16.7384 2.36663 16.6667V11.6667C2.36663 11.5949 2.42823 11.5333 2.49996 11.5333Z"
        stroke="#109CF1" stroke-width="1.4" />
</svg>